<svg width="24" height="24" viewBox="0 0 24 24" fill="none" xmlns="http://www.w3.org/2000/svg">
<rect width="24" height="24" rx="12" fill="black"/>
<path d="M12.0007 5.59961C10.2625 5.59961 10.0444 5.60721 9.36174 5.63828C8.6804 5.66948 8.21532 5.77734 7.80839 5.93561C7.38745 6.09908 7.03038 6.31775 6.67464 6.67362C6.31864 7.02936 6.09997 7.38643 5.93597 7.80723C5.7773 8.2143 5.6693 8.67951 5.63863 9.36058C5.6081 10.0433 5.6001 10.2615 5.6001 11.9997C5.6001 13.7378 5.60783 13.9553 5.63876 14.638C5.6701 15.3193 5.77797 15.7844 5.9361 16.1913C6.0997 16.6123 6.31837 16.9693 6.67424 17.3251C7.02985 17.6811 7.38692 17.9003 7.80759 18.0637C8.21479 18.222 8.68 18.3299 9.3612 18.3611C10.0439 18.3921 10.2619 18.3997 11.9999 18.3997C13.7382 18.3997 13.9557 18.3921 14.6383 18.3611C15.3197 18.3299 15.7853 18.222 16.1925 18.0637C16.6133 17.9003 16.9698 17.6811 17.3254 17.3251C17.6814 16.9693 17.9001 16.6123 18.0641 16.1915C18.2214 15.7844 18.3294 15.3192 18.3614 14.6381C18.3921 13.9554 18.4001 13.7378 18.4001 11.9997C18.4001 10.2615 18.3921 10.0434 18.3614 9.36071C18.3294 8.67937 18.2214 8.2143 18.0641 7.80737C17.9001 7.38643 17.6814 7.02936 17.3254 6.67362C16.9694 6.31762 16.6134 6.09895 16.1921 5.93561C15.7841 5.77734 15.3187 5.66948 14.6374 5.63828C13.9547 5.60721 13.7374 5.59961 11.9987 5.59961H12.0007Z" fill="white"/>
<path fill-rule="evenodd" clip-rule="evenodd" d="M11.4265 6.75355C11.538 6.75338 11.6579 6.75343 11.7873 6.75349L12.0006 6.75355C13.7094 6.75355 13.912 6.75969 14.5868 6.79035C15.2108 6.81889 15.5495 6.92315 15.7751 7.01076C16.0737 7.12676 16.2867 7.26543 16.5105 7.48943C16.7345 7.71343 16.8732 7.92677 16.9895 8.22544C17.0771 8.45077 17.1815 8.78944 17.2099 9.41345C17.2405 10.0881 17.2472 10.2908 17.2472 11.9988C17.2472 13.7068 17.2405 13.9095 17.2099 14.5842C17.1813 15.2082 17.0771 15.5468 16.9895 15.7722C16.8735 16.0709 16.7345 16.2835 16.5105 16.5074C16.2865 16.7314 16.0739 16.8701 15.7751 16.9861C15.5497 17.0741 15.2108 17.1781 14.5868 17.2066C13.9121 17.2373 13.7094 17.2439 12.0006 17.2439C10.2917 17.2439 10.0891 17.2373 9.41447 17.2066C8.79046 17.1778 8.45179 17.0735 8.22605 16.9859C7.92739 16.8699 7.71405 16.7313 7.49005 16.5073C7.26604 16.2833 7.12738 16.0705 7.01111 15.7716C6.92351 15.5463 6.81911 15.2076 6.79071 14.5836C6.76004 13.909 6.75391 13.7063 6.75391 11.9972C6.75391 10.2881 6.76004 10.0865 6.79071 9.41185C6.81924 8.78784 6.92351 8.44917 7.01111 8.22357C7.12711 7.9249 7.26604 7.71156 7.49005 7.48756C7.71405 7.26356 7.92739 7.12489 8.22605 7.00862C8.45166 6.92062 8.79046 6.81662 9.41447 6.78795C10.0049 6.76129 10.2337 6.75329 11.4265 6.75195V6.75355ZM15.4169 7.81667C14.9929 7.81667 14.6489 8.16028 14.6489 8.58441C14.6489 9.00842 14.9929 9.35242 15.4169 9.35242C15.8409 9.35242 16.1849 9.00842 16.1849 8.58441C16.1849 8.16041 15.8409 7.81641 15.4169 7.81641V7.81667ZM8.71387 11.9996C8.71387 10.1845 10.1854 8.71296 12.0004 8.71289C13.8155 8.71289 15.2867 10.1845 15.2867 11.9996C15.2867 13.8147 13.8157 15.2856 12.0006 15.2856C10.1855 15.2856 8.71387 13.8147 8.71387 11.9996Z" fill="black"/>
<path d="M12.0005 9.86719C13.1787 9.86719 14.1339 10.8223 14.1339 12.0005C14.1339 13.1787 13.1787 14.1339 12.0005 14.1339C10.8223 14.1339 9.86719 13.1787 9.86719 12.0005C9.86719 10.8223 10.8223 9.86719 12.0005 9.86719Z" fill="black"/>
</svg>
